<?xml version="1.0" encoding="UTF-8" standalone="no"?>
<!DOCTYPE svg PUBLIC "-//W3C//DTD SVG 1.1//EN"
 "http://www.w3.org/Graphics/SVG/1.1/DTD/svg11.dtd">
<!-- Generated by graphviz version 2.43.0 (0)
 -->
<!-- Title: AvionesDisponibles Pages: 1 -->
<svg width="364pt" height="820pt"
 viewBox="0.00 0.00 364.00 820.00" xmlns="http://www.w3.org/2000/svg" xmlns:xlink="http://www.w3.org/1999/xlink">
<g id="graph0" class="graph" transform="scale(1 1) rotate(0) translate(4 816)">
<title>AvionesDisponibles</title>
<polygon fill="white" stroke="transparent" points="-4,4 -4,-816 360,-816 360,4 -4,4"/>
<!-- nodeA54321 -->
<g id="node1" class="node">
<title>nodeA54321</title>
<polygon fill="none" stroke="black" points="95,-787 95,-808 344,-808 344,-787 95,-787"/>
<text text-anchor="start" x="168" y="-794.8" font-family="Times,serif" font-weight="bold" font-size="14.00">Vuelo: A1020</text>
<polygon fill="none" stroke="black" points="95,-766 95,-787 344,-787 344,-766 95,-766"/>
<text text-anchor="start" x="157" y="-772.8" font-family="Times,serif" font-size="14.00">Registro: A54321</text>
<polygon fill="none" stroke="black" points="95,-745 95,-766 344,-766 344,-745 95,-745"/>
<text text-anchor="start" x="144.5" y="-751.8" font-family="Times,serif" font-size="14.00">Modelo: Airbus A320</text>
<polygon fill="none" stroke="black" points="95,-724 95,-745 344,-745 344,-724 95,-724"/>
<text text-anchor="start" x="153" y="-730.8" font-family="Times,serif" font-size="14.00">Fabricante: Airbus</text>
<polygon fill="none" stroke="black" points="95,-703 95,-724 344,-724 344,-703 95,-703"/>
<text text-anchor="start" x="130.5" y="-709.8" font-family="Times,serif" font-size="14.00">Año de fabricación: 2018</text>
<polygon fill="none" stroke="black" points="95,-682 95,-703 344,-703 344,-682 95,-682"/>
<text text-anchor="start" x="98" y="-688.8" font-family="Times,serif" font-size="14.00">Peso máximo de despegue: 77000</text>
<polygon fill="none" stroke="black" points="95,-661 95,-682 344,-682 344,-661 95,-661"/>
<text text-anchor="start" x="153" y="-667.8" font-family="Times,serif" font-size="14.00">Aerolínea: AirlineY</text>
<polygon fill="none" stroke="black" points="95,-640 95,-661 344,-661 344,-640 95,-640"/>
<text text-anchor="start" x="152" y="-646.8" font-family="Times,serif" font-size="14.00">Estado: Disponible</text>
</g>
<!-- nodeA98765 -->
<g id="node2" class="node">
<title>nodeA98765</title>
<polygon fill="none" stroke="black" points="90,-575 90,-596 348,-596 348,-575 90,-575"/>
<text text-anchor="start" x="169" y="-582.8" font-family="Times,serif" font-weight="bold" font-size="14.00">Vuelo: I4721</text>
<polygon fill="none" stroke="black" points="90,-554 90,-575 348,-575 348,-554 90,-554"/>
<text text-anchor="start" x="156.5" y="-560.8" font-family="Times,serif" font-size="14.00">Registro: A98765</text>
<polygon fill="none" stroke="black" points="90,-533 90,-554 348,-554 348,-533 90,-533"/>
<text text-anchor="start" x="144" y="-539.8" font-family="Times,serif" font-size="14.00">Modelo: Airbus A350</text>
<polygon fill="none" stroke="black" points="90,-512 90,-533 348,-533 348,-512 90,-512"/>
<text text-anchor="start" x="152.5" y="-518.8" font-family="Times,serif" font-size="14.00">Fabricante: Airbus</text>
<polygon fill="none" stroke="black" points="90,-491 90,-512 348,-512 348,-491 90,-491"/>
<text text-anchor="start" x="130" y="-497.8" font-family="Times,serif" font-size="14.00">Año de fabricación: 2019</text>
<polygon fill="none" stroke="black" points="90,-470 90,-491 348,-491 348,-470 90,-470"/>
<text text-anchor="start" x="93" y="-476.8" font-family="Times,serif" font-size="14.00">Peso máximo de despegue: 280000</text>
<polygon fill="none" stroke="black" points="90,-449 90,-470 348,-470 348,-449 90,-449"/>
<text text-anchor="start" x="152.5" y="-455.8" font-family="Times,serif" font-size="14.00">Aerolínea: AirlineY</text>
<polygon fill="none" stroke="black" points="90,-428 90,-449 348,-449 348,-428 90,-428"/>
<text text-anchor="start" x="151.5" y="-434.8" font-family="Times,serif" font-size="14.00">Estado: Disponible</text>
</g>
<!-- nodeA54321&#45;&gt;nodeA98765 -->
<g id="edge1" class="edge">
<title>nodeA54321&#45;&gt;nodeA98765</title>
<path fill="none" stroke="black" d="M212.34,-635.77C212.25,-627.43 212.23,-618.95 212.27,-610.53"/>
<polygon fill="black" stroke="black" points="215.77,-610.32 212.34,-600.3 208.77,-610.28 215.77,-610.32"/>
</g>
<!-- nodeA98765&#45;&gt;nodeA54321 -->
<g id="edge5" class="edge">
<title>nodeA98765&#45;&gt;nodeA54321</title>
<path fill="none" stroke="black" d="M225.66,-600.3C225.75,-608.63 225.77,-617.12 225.73,-625.54"/>
<polygon fill="black" stroke="black" points="222.23,-625.74 225.66,-635.77 229.23,-625.79 222.23,-625.74"/>
</g>
<!-- nodeA12345 -->
<g id="node3" class="node">
<title>nodeA12345</title>
<polygon fill="none" stroke="black" points="8,-363 8,-384 266,-384 266,-363 8,-363"/>
<text text-anchor="start" x="85.5" y="-370.8" font-family="Times,serif" font-weight="bold" font-size="14.00">Vuelo: E2468</text>
<polygon fill="none" stroke="black" points="8,-342 8,-363 266,-363 266,-342 8,-342"/>
<text text-anchor="start" x="74.5" y="-348.8" font-family="Times,serif" font-size="14.00">Registro: A12345</text>
<polygon fill="none" stroke="black" points="8,-321 8,-342 266,-342 266,-321 8,-321"/>
<text text-anchor="start" x="62" y="-327.8" font-family="Times,serif" font-size="14.00">Modelo: Airbus A380</text>
<polygon fill="none" stroke="black" points="8,-300 8,-321 266,-321 266,-300 8,-300"/>
<text text-anchor="start" x="70.5" y="-306.8" font-family="Times,serif" font-size="14.00">Fabricante: Airbus</text>
<polygon fill="none" stroke="black" points="8,-279 8,-300 266,-300 266,-279 8,-279"/>
<text text-anchor="start" x="48" y="-285.8" font-family="Times,serif" font-size="14.00">Año de fabricación: 2017</text>
<polygon fill="none" stroke="black" points="8,-258 8,-279 266,-279 266,-258 8,-258"/>
<text text-anchor="start" x="11" y="-264.8" font-family="Times,serif" font-size="14.00">Peso máximo de despegue: 575000</text>
<polygon fill="none" stroke="black" points="8,-237 8,-258 266,-258 266,-237 8,-237"/>
<text text-anchor="start" x="70.5" y="-243.8" font-family="Times,serif" font-size="14.00">Aerolínea: AirlineY</text>
<polygon fill="none" stroke="black" points="8,-216 8,-237 266,-237 266,-216 8,-216"/>
<text text-anchor="start" x="69.5" y="-222.8" font-family="Times,serif" font-size="14.00">Estado: Disponible</text>
</g>
<!-- nodeA98765&#45;&gt;nodeA12345 -->
<g id="edge2" class="edge">
<title>nodeA98765&#45;&gt;nodeA12345</title>
<path fill="none" stroke="black" d="M184.94,-423.77C181.58,-415.16 178.15,-406.39 174.76,-397.69"/>
<polygon fill="black" stroke="black" points="177.99,-396.34 171.09,-388.3 171.47,-398.89 177.99,-396.34"/>
</g>
<!-- nodeA43210 -->
<g id="node4" class="node">
<title>nodeA43210</title>
<polygon fill="none" stroke="black" points="95,-151 95,-172 344,-172 344,-151 95,-151"/>
<text text-anchor="start" x="167" y="-158.8" font-family="Times,serif" font-weight="bold" font-size="14.00">Vuelo: G2580</text>
<polygon fill="none" stroke="black" points="95,-130 95,-151 344,-151 344,-130 95,-130"/>
<text text-anchor="start" x="157" y="-136.8" font-family="Times,serif" font-size="14.00">Registro: A43210</text>
<polygon fill="none" stroke="black" points="95,-109 95,-130 344,-130 344,-109 95,-109"/>
<text text-anchor="start" x="144.5" y="-115.8" font-family="Times,serif" font-size="14.00">Modelo: Airbus A321</text>
<polygon fill="none" stroke="black" points="95,-88 95,-109 344,-109 344,-88 95,-88"/>
<text text-anchor="start" x="153" y="-94.8" font-family="Times,serif" font-size="14.00">Fabricante: Airbus</text>
<polygon fill="none" stroke="black" points="95,-67 95,-88 344,-88 344,-67 95,-67"/>
<text text-anchor="start" x="130.5" y="-73.8" font-family="Times,serif" font-size="14.00">Año de fabricación: 2015</text>
<polygon fill="none" stroke="black" points="95,-46 95,-67 344,-67 344,-46 95,-46"/>
<text text-anchor="start" x="98" y="-52.8" font-family="Times,serif" font-size="14.00">Peso máximo de despegue: 93000</text>
<polygon fill="none" stroke="black" points="95,-25 95,-46 344,-46 344,-25 95,-25"/>
<text text-anchor="start" x="150" y="-31.8" font-family="Times,serif" font-size="14.00">Aerolínea: AirlineW</text>
<polygon fill="none" stroke="black" points="95,-4 95,-25 344,-25 344,-4 95,-4"/>
<text text-anchor="start" x="152" y="-10.8" font-family="Times,serif" font-size="14.00">Estado: Disponible</text>
</g>
<!-- nodeA12345&#45;&gt;nodeA43210 -->
<g id="edge3" class="edge">
<title>nodeA12345&#45;&gt;nodeA43210</title>
<path fill="none" stroke="black" d="M171.06,-211.77C174.42,-203.16 177.85,-194.39 181.24,-185.69"/>
<polygon fill="black" stroke="black" points="184.53,-186.89 184.91,-176.3 178.01,-184.34 184.53,-186.89"/>
</g>
<!-- nodeA43210&#45;&gt;nodeA98765 -->
<g id="edge4" class="edge">
<title>nodeA43210&#45;&gt;nodeA98765</title>
<path fill="none" stroke="black" d="M270.63,-176.02C275.7,-187.78 280.05,-199.96 283,-212 301.59,-287.98 301.59,-312.02 283,-388 280.84,-396.84 277.92,-405.76 274.51,-414.53"/>
<polygon fill="black" stroke="black" points="271.19,-413.4 270.63,-423.98 277.67,-416.06 271.19,-413.4"/>
</g>
</g>
</svg>
