<?xml version="1.0" encoding="UTF-8" standalone="no"?>
<!DOCTYPE svg PUBLIC "-//W3C//DTD SVG 1.1//EN"
 "http://www.w3.org/Graphics/SVG/1.1/DTD/svg11.dtd">
<!-- Generated by graphviz version 2.43.0 (0)
 -->
<!-- Title: AvionesMantenimiento Pages: 1 -->
<svg width="364pt" height="1032pt"
 viewBox="0.00 0.00 364.00 1032.00" xmlns="http://www.w3.org/2000/svg" xmlns:xlink="http://www.w3.org/1999/xlink">
<g id="graph0" class="graph" transform="scale(1 1) rotate(0) translate(4 1028)">
<title>AvionesMantenimiento</title>
<polygon fill="white" stroke="transparent" points="-4,4 -4,-1028 360,-1028 360,4 -4,4"/>
<!-- nodeN12345 -->
<g id="node1" class="node">
<title>nodeN12345</title>
<polygon fill="none" stroke="black" points="95,-999 95,-1020 344,-1020 344,-999 95,-999"/>
<text text-anchor="start" x="168" y="-1006.8" font-family="Times,serif" font-weight="bold" font-size="14.00">Vuelo: A1090</text>
<polygon fill="none" stroke="black" points="95,-978 95,-999 344,-999 344,-978 95,-978"/>
<text text-anchor="start" x="156" y="-984.8" font-family="Times,serif" font-size="14.00">Registro: N12345</text>
<polygon fill="none" stroke="black" points="95,-957 95,-978 344,-978 344,-957 95,-957"/>
<text text-anchor="start" x="148" y="-963.8" font-family="Times,serif" font-size="14.00">Modelo: Boeing 737</text>
<polygon fill="none" stroke="black" points="95,-936 95,-957 344,-957 344,-936 95,-936"/>
<text text-anchor="start" x="151.5" y="-942.8" font-family="Times,serif" font-size="14.00">Fabricante: Boeing</text>
<polygon fill="none" stroke="black" points="95,-915 95,-936 344,-936 344,-915 95,-915"/>
<text text-anchor="start" x="130.5" y="-921.8" font-family="Times,serif" font-size="14.00">Año de fabricación: 2015</text>
<polygon fill="none" stroke="black" points="95,-894 95,-915 344,-915 344,-894 95,-894"/>
<text text-anchor="start" x="98" y="-900.8" font-family="Times,serif" font-size="14.00">Peso máximo de despegue: 78000</text>
<polygon fill="none" stroke="black" points="95,-873 95,-894 344,-894 344,-873 95,-873"/>
<text text-anchor="start" x="152.5" y="-879.8" font-family="Times,serif" font-size="14.00">Aerolínea: AirlineX</text>
<polygon fill="none" stroke="black" points="95,-852 95,-873 344,-873 344,-852 95,-852"/>
<text text-anchor="start" x="135.5" y="-858.8" font-family="Times,serif" font-size="14.00">Estado: Mantenimiento</text>
</g>
<!-- nodeN67890 -->
<g id="node2" class="node">
<title>nodeN67890</title>
<polygon fill="none" stroke="black" points="8,-787 8,-808 266,-808 266,-787 8,-787"/>
<text text-anchor="start" x="84.5" y="-794.8" font-family="Times,serif" font-weight="bold" font-size="14.00">Vuelo: B2345</text>
<polygon fill="none" stroke="black" points="8,-766 8,-787 266,-787 266,-766 8,-766"/>
<text text-anchor="start" x="73.5" y="-772.8" font-family="Times,serif" font-size="14.00">Registro: N67890</text>
<polygon fill="none" stroke="black" points="8,-745 8,-766 266,-766 266,-745 8,-745"/>
<text text-anchor="start" x="65.5" y="-751.8" font-family="Times,serif" font-size="14.00">Modelo: Boeing 777</text>
<polygon fill="none" stroke="black" points="8,-724 8,-745 266,-745 266,-724 8,-724"/>
<text text-anchor="start" x="69" y="-730.8" font-family="Times,serif" font-size="14.00">Fabricante: Boeing</text>
<polygon fill="none" stroke="black" points="8,-703 8,-724 266,-724 266,-703 8,-703"/>
<text text-anchor="start" x="48" y="-709.8" font-family="Times,serif" font-size="14.00">Año de fabricación: 2019</text>
<polygon fill="none" stroke="black" points="8,-682 8,-703 266,-703 266,-682 8,-682"/>
<text text-anchor="start" x="11" y="-688.8" font-family="Times,serif" font-size="14.00">Peso máximo de despegue: 310000</text>
<polygon fill="none" stroke="black" points="8,-661 8,-682 266,-682 266,-661 8,-661"/>
<text text-anchor="start" x="70" y="-667.8" font-family="Times,serif" font-size="14.00">Aerolínea: AirlineZ</text>
<polygon fill="none" stroke="black" points="8,-640 8,-661 266,-661 266,-640 8,-640"/>
<text text-anchor="start" x="53" y="-646.8" font-family="Times,serif" font-size="14.00">Estado: Mantenimiento</text>
</g>
<!-- nodeN12345&#45;&gt;nodeN67890 -->
<g id="edge1" class="edge">
<title>nodeN12345&#45;&gt;nodeN67890</title>
<path fill="none" stroke="black" d="M184.94,-847.77C181.58,-839.16 178.15,-830.39 174.76,-821.69"/>
<polygon fill="black" stroke="black" points="177.99,-820.34 171.09,-812.3 171.47,-822.89 177.99,-820.34"/>
</g>
<!-- nodeN54321 -->
<g id="node3" class="node">
<title>nodeN54321</title>
<polygon fill="none" stroke="black" points="8,-575 8,-596 266,-596 266,-575 8,-575"/>
<text text-anchor="start" x="84.5" y="-582.8" font-family="Times,serif" font-weight="bold" font-size="14.00">Vuelo: D7890</text>
<polygon fill="none" stroke="black" points="8,-554 8,-575 266,-575 266,-554 8,-554"/>
<text text-anchor="start" x="73.5" y="-560.8" font-family="Times,serif" font-size="14.00">Registro: N54321</text>
<polygon fill="none" stroke="black" points="8,-533 8,-554 266,-554 266,-533 8,-533"/>
<text text-anchor="start" x="65.5" y="-539.8" font-family="Times,serif" font-size="14.00">Modelo: Boeing 747</text>
<polygon fill="none" stroke="black" points="8,-512 8,-533 266,-533 266,-512 8,-512"/>
<text text-anchor="start" x="69" y="-518.8" font-family="Times,serif" font-size="14.00">Fabricante: Boeing</text>
<polygon fill="none" stroke="black" points="8,-491 8,-512 266,-512 266,-491 8,-491"/>
<text text-anchor="start" x="48" y="-497.8" font-family="Times,serif" font-size="14.00">Año de fabricación: 2013</text>
<polygon fill="none" stroke="black" points="8,-470 8,-491 266,-491 266,-470 8,-470"/>
<text text-anchor="start" x="11" y="-476.8" font-family="Times,serif" font-size="14.00">Peso máximo de despegue: 448000</text>
<polygon fill="none" stroke="black" points="8,-449 8,-470 266,-470 266,-449 8,-449"/>
<text text-anchor="start" x="70" y="-455.8" font-family="Times,serif" font-size="14.00">Aerolínea: AirlineX</text>
<polygon fill="none" stroke="black" points="8,-428 8,-449 266,-449 266,-428 8,-428"/>
<text text-anchor="start" x="53" y="-434.8" font-family="Times,serif" font-size="14.00">Estado: Mantenimiento</text>
</g>
<!-- nodeN67890&#45;&gt;nodeN54321 -->
<g id="edge2" class="edge">
<title>nodeN67890&#45;&gt;nodeN54321</title>
<path fill="none" stroke="black" d="M137,-635.77C137,-627.43 137,-618.95 137,-610.53"/>
<polygon fill="black" stroke="black" points="140.5,-610.3 137,-600.3 133.5,-610.3 140.5,-610.3"/>
</g>
<!-- nodeN09876 -->
<g id="node4" class="node">
<title>nodeN09876</title>
<polygon fill="none" stroke="black" points="15,-363 15,-384 264,-384 264,-363 15,-363"/>
<text text-anchor="start" x="88" y="-370.8" font-family="Times,serif" font-weight="bold" font-size="14.00">Vuelo: F1357</text>
<polygon fill="none" stroke="black" points="15,-342 15,-363 264,-363 264,-342 15,-342"/>
<text text-anchor="start" x="76" y="-348.8" font-family="Times,serif" font-size="14.00">Registro: N09876</text>
<polygon fill="none" stroke="black" points="15,-321 15,-342 264,-342 264,-321 15,-321"/>
<text text-anchor="start" x="49" y="-327.8" font-family="Times,serif" font-size="14.00">Modelo: Boeing 737 MAX</text>
<polygon fill="none" stroke="black" points="15,-300 15,-321 264,-321 264,-300 15,-300"/>
<text text-anchor="start" x="71.5" y="-306.8" font-family="Times,serif" font-size="14.00">Fabricante: Boeing</text>
<polygon fill="none" stroke="black" points="15,-279 15,-300 264,-300 264,-279 15,-279"/>
<text text-anchor="start" x="50.5" y="-285.8" font-family="Times,serif" font-size="14.00">Año de fabricación: 2020</text>
<polygon fill="none" stroke="black" points="15,-258 15,-279 264,-279 264,-258 15,-258"/>
<text text-anchor="start" x="18" y="-264.8" font-family="Times,serif" font-size="14.00">Peso máximo de despegue: 82000</text>
<polygon fill="none" stroke="black" points="15,-237 15,-258 264,-258 264,-237 15,-237"/>
<text text-anchor="start" x="72.5" y="-243.8" font-family="Times,serif" font-size="14.00">Aerolínea: AirlineZ</text>
<polygon fill="none" stroke="black" points="15,-216 15,-237 264,-237 264,-216 15,-216"/>
<text text-anchor="start" x="55.5" y="-222.8" font-family="Times,serif" font-size="14.00">Estado: Mantenimiento</text>
</g>
<!-- nodeN54321&#45;&gt;nodeN09876 -->
<g id="edge3" class="edge">
<title>nodeN54321&#45;&gt;nodeN09876</title>
<path fill="none" stroke="black" d="M137.83,-423.77C137.91,-415.43 137.99,-406.95 138.07,-398.53"/>
<polygon fill="black" stroke="black" points="141.57,-398.33 138.17,-388.3 134.57,-398.27 141.57,-398.33"/>
</g>
<!-- nodeN24680 -->
<g id="node5" class="node">
<title>nodeN24680</title>
<polygon fill="none" stroke="black" points="90,-151 90,-172 348,-172 348,-151 90,-151"/>
<text text-anchor="start" x="166" y="-158.8" font-family="Times,serif" font-weight="bold" font-size="14.00">Vuelo: H3698</text>
<polygon fill="none" stroke="black" points="90,-130 90,-151 348,-151 348,-130 90,-130"/>
<text text-anchor="start" x="155.5" y="-136.8" font-family="Times,serif" font-size="14.00">Registro: N24680</text>
<polygon fill="none" stroke="black" points="90,-109 90,-130 348,-130 348,-109 90,-109"/>
<text text-anchor="start" x="104.5" y="-115.8" font-family="Times,serif" font-size="14.00">Modelo: Boeing 787 Dreamliner</text>
<polygon fill="none" stroke="black" points="90,-88 90,-109 348,-109 348,-88 90,-88"/>
<text text-anchor="start" x="151" y="-94.8" font-family="Times,serif" font-size="14.00">Fabricante: Boeing</text>
<polygon fill="none" stroke="black" points="90,-67 90,-88 348,-88 348,-67 90,-67"/>
<text text-anchor="start" x="130" y="-73.8" font-family="Times,serif" font-size="14.00">Año de fabricación: 2018</text>
<polygon fill="none" stroke="black" points="90,-46 90,-67 348,-67 348,-46 90,-46"/>
<text text-anchor="start" x="93" y="-52.8" font-family="Times,serif" font-size="14.00">Peso máximo de despegue: 228000</text>
<polygon fill="none" stroke="black" points="90,-25 90,-46 348,-46 348,-25 90,-25"/>
<text text-anchor="start" x="152" y="-31.8" font-family="Times,serif" font-size="14.00">Aerolínea: AirlineX</text>
<polygon fill="none" stroke="black" points="90,-4 90,-25 348,-25 348,-4 90,-4"/>
<text text-anchor="start" x="135" y="-10.8" font-family="Times,serif" font-size="14.00">Estado: Mantenimiento</text>
</g>
<!-- nodeN09876&#45;&gt;nodeN24680 -->
<g id="edge4" class="edge">
<title>nodeN09876&#45;&gt;nodeN24680</title>
<path fill="none" stroke="black" d="M172.23,-211.77C175.51,-203.16 178.85,-194.39 182.16,-185.69"/>
<polygon fill="black" stroke="black" points="185.45,-186.89 185.74,-176.3 178.91,-184.4 185.45,-186.89"/>
</g>
<!-- nodeN24680&#45;&gt;nodeN12345 -->
<g id="edge5" class="edge">
<title>nodeN24680&#45;&gt;nodeN12345</title>
<path fill="none" stroke="black" d="M268.06,-176.23C272.92,-187.96 277.11,-200.07 280,-212 342.68,-471.2 346.36,-552.97 283,-812 280.84,-820.84 277.92,-829.76 274.51,-838.53"/>
<polygon fill="black" stroke="black" points="271.19,-837.4 270.63,-847.98 277.67,-840.06 271.19,-837.4"/>
</g>
</g>
</svg>
